<?xml version="1.0" standalone="no"?>
<!DOCTYPE svg PUBLIC "-//W3C//DTD SVG 20010904//EN"
 "http://www.w3.org/TR/2001/REC-SVG-20010904/DTD/svg10.dtd">
<svg version="1.0" xmlns="http://www.w3.org/2000/svg"
 width="80.000000pt" height="80.000000pt" viewBox="0 0 80.000000 80.000000"
 preserveAspectRatio="xMidYMid meet">
<metadata>
Created by potrace 1.14, written by Peter Selinger 2001-2017
</metadata>
<g transform="translate(0.000000,80.000000) scale(0.100000,-0.100000)"
fill="#000000" stroke="none">
<path d="M235 720 c-3 -5 -3 -10 2 -10 4 0 0 -5 -10 -11 -9 -6 -15 -15 -11
-20 3 -5 0 -8 -8 -7 -7 2 -12 -3 -10 -11 2 -9 -3 -11 -13 -7 -9 3 -13 2 -10
-4 3 -6 1 -10 -4 -10 -6 0 -10 -3 -9 -7 2 -13 -20 -61 -32 -68 -5 -3 -8 -11
-5 -16 4 -5 2 -9 -4 -9 -5 0 -8 -9 -6 -19 2 -13 -1 -18 -9 -15 -10 4 -13 -20
-13 -105 0 -61 3 -111 7 -111 4 0 12 -18 19 -40 6 -22 16 -40 22 -40 6 0 7 -5
4 -10 -3 -6 -1 -10 5 -10 6 0 8 -4 5 -10 -3 -5 -1 -10 4 -10 6 0 11 -10 11
-21 0 -19 2 -20 17 -8 11 10 14 10 9 2 -4 -8 -2 -13 4 -13 6 0 8 -5 5 -10 -3
-6 -1 -10 6 -10 7 0 9 -3 6 -6 -8 -9 32 -44 50 -44 7 0 13 5 13 11 0 5 4 8 9
5 5 -3 11 1 15 9 3 8 1 15 -5 15 -6 0 -8 4 -5 8 7 11 -30 42 -40 34 -4 -4 -4
-2 0 5 3 6 -4 22 -16 35 -13 13 -25 32 -26 43 -2 11 -9 26 -15 34 -10 12 -9
13 3 6 9 -5 8 0 -4 13 -22 25 -32 76 -13 66 8 -5 8 -3 0 7 -17 17 -17 51 0 68
9 11 9 13 0 7 -16 -9 -17 8 -2 36 8 15 8 19 0 14 -12 -8 4 37 22 61 5 7 5 18
1 24 -5 8 -2 10 8 6 9 -3 15 0 15 6 -1 34 5 47 19 47 8 0 12 5 9 10 -3 6 -1
10 4 10 6 0 11 5 11 11 0 15 26 39 35 31 4 -4 5 0 3 8 -6 28 -60 51 -73 30z"/>
<path d="M496 708 c-18 -20 -18 -21 -1 -15 16 7 16 5 4 -10 -7 -10 -9 -15 -5
-11 9 8 43 -31 39 -44 -2 -4 6 -10 17 -13 11 -4 20 -13 20 -21 0 -8 8 -29 17
-47 9 -18 16 -38 14 -46 -1 -7 1 -11 6 -8 5 3 8 -12 8 -33 0 -21 3 -36 8 -33
5 3 6 -14 3 -38 -4 -24 -7 -52 -7 -61 0 -10 -4 -18 -9 -18 -5 0 -7 -9 -5 -20
2 -10 -6 -31 -18 -47 -12 -15 -15 -23 -7 -18 8 4 5 -3 -8 -17 -17 -19 -20 -27
-10 -31 10 -4 9 -6 -2 -6 -8 -1 -26 -17 -40 -35 -14 -19 -29 -31 -35 -28 -5 3
-4 -2 4 -11 7 -9 10 -17 5 -18 -12 -1 28 -17 44 -18 7 -1 10 4 7 9 -3 6 1 10
9 10 8 0 18 5 22 12 5 7 3 8 -6 3 -9 -5 -11 -4 -6 3 4 7 14 12 23 12 9 0 13 3
10 6 -4 4 1 14 11 23 9 9 23 28 31 44 8 15 18 27 23 27 5 0 6 4 3 10 -3 5 1
21 10 34 9 14 14 30 10 36 -3 5 -2 10 4 10 6 0 8 7 5 15 -4 8 -1 22 6 30 7 8
9 15 5 15 -4 0 -2 7 5 15 9 10 9 15 1 15 -6 0 -11 5 -11 11 0 5 6 7 13 3 9 -5
9 -4 0 6 -6 7 -9 19 -6 28 4 10 2 13 -6 8 -8 -5 -10 0 -7 18 3 14 1 26 -4 26
-5 0 -7 7 -3 16 3 9 1 19 -5 23 -7 4 -13 19 -14 33 -1 15 -6 24 -10 22 -4 -3
-15 10 -24 28 -20 40 -54 84 -54 72 0 -5 -6 2 -13 16 -16 32 -46 35 -71 8z"/>
</g>
</svg>
